<?xml version="1.0" encoding="utf-8"?>
<!-- Generator: Adobe Illustrator 15.1.0, SVG Export Plug-In . SVG Version: 6.00 Build 0)  -->
<!DOCTYPE svg PUBLIC "-//W3C//DTD SVG 1.1//EN" "http://www.w3.org/Graphics/SVG/1.1/DTD/svg11.dtd">
<svg version="1.1" id="Laag_1" xmlns="http://www.w3.org/2000/svg" xmlns:xlink="http://www.w3.org/1999/xlink" x="0px" y="0px"
	 width="200px" height="50px" viewBox="0 0 200 50" enable-background="new 0 0 200 50" xml:space="preserve">
<g>
	<path fill="#E5006D" d="M43.105,17.958h-6.579l3.219-11.496h0.07L43.105,17.958z M44.521,23.123l1.379,4.562h7.216L45.051,1.154
		H34.298l-7.959,26.532h7.357l1.31-4.562H44.521z"/>
	<path fill="#E5006D" d="M71.723,17.958h-6.58l3.219-11.496h0.071L71.723,17.958z M73.139,23.123l1.378,4.562h7.216L73.669,1.154
		H62.915l-7.958,26.532h7.357l1.31-4.562H73.139z"/>
	<path fill="#E5006D" d="M91.385,7.312h6.191c2.475,0,3.572,0.707,3.572,4.139v5.552c0,2.796-0.955,4.529-3.572,4.529h-6.191V7.312z
		 M84.312,27.686h14.397c7.393,0,9.727-3.431,9.727-10.684V11.45c0-7.535-3.289-10.295-10.683-10.295H84.312V27.686z"/>
	<polygon points="130.99,27.685 123.915,27.685 123.915,17.286 114.681,17.286 114.677,27.662 107.595,27.662 107.606,1.154 
		114.681,1.154 114.681,11.129 123.915,11.129 123.915,1.154 130.99,1.154 	"/>
	<path d="M159.196,1.154v17.69c0,7.073-3.326,9.055-11.108,9.055c-10.612,0-11.747-2.688-11.747-9.055V1.154h7.077v17.549
		c0,3.005,1.697,3.04,4.669,3.04c3.007,0,4.033-0.246,4.033-3.358V1.154H159.196z"/>
	<rect x="164.485" y="1.154" width="7.075" height="26.532"/>
	<path d="M189.104,11.555c7.853,0.565,9.798,1.556,9.798,7.641c0,4.387,0.176,8.702-11.497,8.702
		c-6.757,0-11.249-0.142-11.249-8.844h6.791c0,2.76,0.99,3.043,4.458,3.043c3.325,0,4.422-0.213,4.422-2.44
		c0-2.3-0.39-2.265-3.715-2.477l-1.557-0.107c-6.544-0.46-10.365-0.422-10.365-8.029c0-7.605,4.28-8.101,11.215-8.101
		c5.801,0,10.752,0.106,10.752,7.428v1.098h-6.789c0-2.723-1.135-2.723-3.963-2.723c-3.821,0-4.141,0.778-4.141,2.263
		c0,2.122,1.027,2.191,2.901,2.334L189.104,11.555z"/>
	<path fill="#FFFFFF" d="M110.316,14.216c0,1.512-1.225,2.737-2.736,2.737c-1.511,0-2.734-1.225-2.734-2.737
		c0-1.511,1.223-2.735,2.734-2.735C109.091,11.481,110.316,12.705,110.316,14.216"/>
	<path fill="#E5006D" d="M23.595,10.549c0-6.389-2.5-9.622-9.138-9.622H1v26.77h7.139v-7.864h4.852l3.337,7.853h7.215l-3.892-8.801
		C22.751,17.433,23.595,14.41,23.595,10.549z M8.139,10.401V7.122h4.889c2.67,0,3.173,0.791,3.208,3.279h-0.001
		c-0.053,2.891-0.563,3.181-3.208,3.281H8.139V10.401z"/>
	<g>
		<g>
			<path d="M7.35,43.346c0,0.733-0.284,1.304-0.852,1.71c-0.568,0.409-1.315,0.612-2.244,0.612c-0.65,0-1.231-0.083-1.741-0.248
				c-0.511-0.165-0.973-0.449-1.386-0.852l0.743-0.743c0.299,0.31,0.65,0.534,1.053,0.673c0.403,0.139,0.841,0.208,1.316,0.208
				c0.64,0,1.137-0.11,1.493-0.333c0.356-0.221,0.534-0.559,0.534-1.014c0-0.341-0.098-0.601-0.294-0.782
				c-0.196-0.181-0.521-0.292-0.976-0.333l-1.253-0.108C3,42.076,2.435,41.881,2.048,41.55c-0.388-0.331-0.581-0.815-0.581-1.456
				c0-0.351,0.07-0.663,0.209-0.936s0.333-0.505,0.58-0.696c0.248-0.191,0.542-0.338,0.883-0.441s0.717-0.154,1.13-0.154
				c0.557,0,1.065,0.066,1.525,0.2c0.458,0.135,0.864,0.34,1.215,0.619l-0.728,0.728c-0.269-0.206-0.575-0.359-0.921-0.457
				c-0.346-0.098-0.714-0.147-1.107-0.147c-0.558,0-0.98,0.111-1.269,0.333c-0.29,0.222-0.434,0.528-0.434,0.92
				c0,0.341,0.108,0.599,0.325,0.774c0.217,0.176,0.563,0.29,1.038,0.34l1.191,0.108c0.331,0.031,0.635,0.088,0.914,0.17
				c0.279,0.083,0.516,0.204,0.712,0.364s0.348,0.363,0.457,0.611C7.295,42.68,7.35,42.985,7.35,43.346z"/>
			<path d="M11.513,45.574c-0.331,0-0.617-0.054-0.86-0.162c-0.242-0.108-0.443-0.256-0.603-0.441
				c-0.161-0.186-0.281-0.403-0.364-0.65c-0.083-0.248-0.124-0.511-0.124-0.789V38.81H8.603v-0.852h0.959v-2.337h1.115v2.337h1.625
				v0.852h-1.625v4.69c0,0.352,0.083,0.624,0.248,0.821c0.165,0.196,0.428,0.294,0.789,0.294h0.588v0.959H11.513L11.513,45.574z"/>
			<path d="M18.772,39.414c-0.206-0.206-0.402-0.351-0.588-0.434c-0.186-0.082-0.428-0.124-0.728-0.124
				c-0.279,0-0.531,0.052-0.758,0.155c-0.228,0.103-0.418,0.248-0.573,0.433c-0.155,0.186-0.276,0.403-0.364,0.65
				c-0.088,0.248-0.132,0.517-0.132,0.805v4.675h-1.115v-7.616h1.115v0.929c0.207-0.32,0.503-0.57,0.89-0.751
				c0.387-0.18,0.802-0.27,1.247-0.27c0.361,0,0.688,0.051,0.983,0.154c0.294,0.104,0.575,0.29,0.844,0.557L18.772,39.414z"/>
			<path d="M25.196,45.574v-0.728c-0.299,0.3-0.614,0.512-0.944,0.635c-0.331,0.125-0.749,0.186-1.254,0.186
				c-0.526,0-0.949-0.052-1.269-0.155c-0.32-0.103-0.614-0.284-0.883-0.542c-0.196-0.186-0.34-0.416-0.433-0.688
				c-0.093-0.274-0.14-0.56-0.14-0.859c0-0.681,0.228-1.218,0.681-1.611c0.454-0.392,1.109-0.587,1.966-0.587h2.275v-0.728
				c0-0.557-0.147-0.975-0.44-1.253c-0.294-0.279-0.797-0.418-1.509-0.418c-0.485,0-0.867,0.067-1.146,0.201
				c-0.279,0.134-0.537,0.361-0.774,0.681l-0.759-0.696c0.33-0.444,0.705-0.746,1.123-0.906c0.418-0.159,0.941-0.239,1.571-0.239
				c1.032,0,1.798,0.216,2.299,0.65c0.501,0.433,0.75,1.062,0.75,1.888v5.17L25.196,45.574L25.196,45.574z M25.196,42.061h-2.121
				c-1.145,0-1.718,0.449-1.718,1.347c0,0.444,0.139,0.771,0.417,0.983c0.278,0.211,0.728,0.317,1.347,0.317
				c0.319,0,0.62-0.028,0.897-0.085c0.279-0.056,0.542-0.199,0.79-0.425c0.258-0.248,0.387-0.687,0.387-1.316L25.196,42.061
				L25.196,42.061z"/>
			<path d="M31.156,45.574c-0.331,0-0.617-0.054-0.86-0.162c-0.242-0.108-0.443-0.256-0.604-0.441
				c-0.16-0.186-0.281-0.403-0.364-0.65c-0.083-0.248-0.124-0.511-0.124-0.789V38.81h-0.96v-0.852h0.96v-2.337h1.114v2.337h1.625
				v0.852h-1.625v4.69c0,0.352,0.083,0.624,0.248,0.821c0.165,0.196,0.428,0.294,0.789,0.294h0.588v0.959H31.156L31.156,45.574z"/>
			<path d="M34.778,42.061c0,0.836,0.188,1.483,0.565,1.943s0.936,0.688,1.679,0.688c0.444,0,0.812-0.069,1.107-0.208
				s0.591-0.359,0.89-0.658l0.759,0.666c-0.196,0.197-0.39,0.366-0.581,0.511c-0.191,0.144-0.397,0.266-0.619,0.364
				c-0.223,0.099-0.462,0.173-0.72,0.224c-0.258,0.052-0.547,0.078-0.867,0.078c-0.506,0-0.965-0.078-1.377-0.232
				c-0.413-0.155-0.764-0.392-1.052-0.712c-0.29-0.32-0.511-0.725-0.666-1.215c-0.154-0.49-0.232-1.07-0.232-1.741
				c0-1.249,0.279-2.211,0.836-2.887c0.558-0.676,1.321-1.013,2.292-1.013c1.001,0,1.772,0.327,2.314,0.983
				c0.541,0.655,0.812,1.561,0.812,2.716v0.496H34.778z M38.819,41.225c-0.01-0.155-0.021-0.29-0.031-0.403
				s-0.023-0.217-0.039-0.309c-0.015-0.093-0.038-0.184-0.069-0.271c-0.031-0.087-0.067-0.183-0.108-0.286
				c-0.165-0.352-0.4-0.629-0.705-0.835c-0.304-0.207-0.663-0.31-1.075-0.31c-0.414,0-0.771,0.104-1.076,0.31
				c-0.305,0.206-0.54,0.484-0.705,0.835c-0.052,0.103-0.091,0.199-0.116,0.286c-0.026,0.088-0.047,0.178-0.062,0.271
				c-0.016,0.092-0.026,0.196-0.031,0.309c-0.005,0.113-0.013,0.248-0.024,0.403H38.819z"/>
			<path d="M47.596,45.807c0,0.475-0.072,0.911-0.217,1.308c-0.145,0.397-0.351,0.74-0.62,1.029
				c-0.268,0.29-0.601,0.517-0.998,0.681c-0.398,0.166-0.844,0.248-1.339,0.248c-0.289,0-0.547-0.019-0.774-0.055
				c-0.228-0.036-0.441-0.095-0.643-0.177c-0.201-0.083-0.397-0.189-0.588-0.318c-0.191-0.129-0.385-0.286-0.581-0.472l0.728-0.712
				c0.134,0.124,0.266,0.232,0.395,0.325s0.263,0.173,0.403,0.24c0.139,0.067,0.292,0.116,0.457,0.146
				c0.166,0.031,0.356,0.047,0.573,0.047c0.372,0,0.689-0.062,0.952-0.187c0.263-0.124,0.48-0.289,0.65-0.495
				s0.294-0.451,0.372-0.735c0.077-0.284,0.116-0.59,0.116-0.92v-1.193c-0.309,0.393-0.64,0.656-0.991,0.79
				c-0.352,0.134-0.733,0.201-1.146,0.201c-0.392,0-0.745-0.062-1.06-0.186c-0.315-0.124-0.576-0.289-0.782-0.495
				c-0.382-0.382-0.632-0.852-0.75-1.409s-0.178-1.146-0.178-1.765s0.059-1.207,0.178-1.765c0.119-0.557,0.369-1.026,0.75-1.409
				c0.207-0.207,0.47-0.368,0.79-0.488c0.319-0.118,0.676-0.177,1.068-0.177c0.423,0,0.807,0.064,1.153,0.193
				s0.673,0.394,0.983,0.797v-0.898h1.099L47.596,45.807L47.596,45.807z M46.481,41.705c0-0.351-0.021-0.698-0.062-1.044
				c-0.041-0.346-0.129-0.65-0.263-0.914c-0.134-0.263-0.325-0.477-0.572-0.642c-0.248-0.165-0.578-0.248-0.991-0.248
				c-0.413,0-0.745,0.083-0.998,0.248c-0.253,0.165-0.446,0.379-0.581,0.642c-0.134,0.264-0.222,0.568-0.263,0.914
				c-0.042,0.346-0.062,0.694-0.062,1.044c0,0.362,0.021,0.712,0.062,1.053c0.041,0.34,0.128,0.642,0.263,0.906
				c0.134,0.263,0.328,0.478,0.581,0.642c0.253,0.165,0.585,0.248,0.998,0.248c0.413,0,0.744-0.083,0.991-0.248
				c0.248-0.165,0.438-0.379,0.572-0.642c0.134-0.264,0.222-0.565,0.263-0.906C46.46,42.417,46.481,42.067,46.481,41.705z"/>
			<path d="M50.01,35.792v-1.253h1.254v1.253H50.01z M50.072,45.574v-7.616h1.115v7.616H50.072z"/>
			<path d="M54.67,42.061c0,0.836,0.188,1.483,0.565,1.943c0.376,0.459,0.937,0.688,1.679,0.688c0.443,0,0.812-0.069,1.106-0.208
				s0.591-0.359,0.891-0.658l0.758,0.666c-0.196,0.197-0.39,0.366-0.581,0.511c-0.191,0.144-0.397,0.266-0.619,0.364
				c-0.222,0.099-0.462,0.173-0.72,0.224c-0.258,0.052-0.547,0.078-0.867,0.078c-0.506,0-0.965-0.078-1.378-0.232
				s-0.764-0.392-1.053-0.712c-0.289-0.32-0.51-0.725-0.665-1.215c-0.155-0.49-0.232-1.07-0.232-1.741
				c0-1.249,0.279-2.211,0.836-2.887c0.557-0.676,1.321-1.013,2.291-1.013c1.001,0,1.772,0.327,2.314,0.983
				c0.542,0.655,0.812,1.561,0.812,2.716v0.496H54.67z M58.709,41.225c-0.011-0.155-0.02-0.29-0.031-0.403s-0.023-0.217-0.039-0.309
				c-0.016-0.093-0.039-0.184-0.07-0.271c-0.031-0.087-0.067-0.183-0.108-0.286c-0.165-0.352-0.399-0.629-0.704-0.835
				c-0.305-0.207-0.663-0.31-1.076-0.31s-0.771,0.104-1.076,0.31c-0.304,0.206-0.539,0.484-0.704,0.835
				c-0.052,0.103-0.09,0.199-0.116,0.286c-0.026,0.088-0.047,0.178-0.062,0.271c-0.016,0.092-0.026,0.196-0.031,0.309
				s-0.013,0.248-0.023,0.403H58.709z"/>
			<path d="M82.146,45.574v-0.913c-0.32,0.402-0.652,0.67-0.999,0.805c-0.346,0.134-0.735,0.201-1.168,0.201
				c-0.392,0-0.748-0.06-1.068-0.178c-0.319-0.119-0.583-0.281-0.789-0.488c-0.382-0.393-0.632-0.875-0.751-1.447
				c-0.118-0.573-0.178-1.169-0.178-1.788c0-0.31,0.013-0.617,0.039-0.921c0.025-0.305,0.072-0.596,0.139-0.875
				c0.067-0.279,0.163-0.542,0.286-0.79c0.125-0.247,0.279-0.464,0.465-0.65c0.206-0.207,0.47-0.368,0.789-0.488
				c0.32-0.118,0.676-0.177,1.068-0.177c0.433,0,0.82,0.064,1.161,0.193c0.34,0.128,0.67,0.389,0.991,0.782v-4.289h1.114v11.022
				H82.146z M82.131,41.767c0-0.372-0.021-0.733-0.062-1.083c-0.041-0.351-0.129-0.661-0.263-0.929
				c-0.134-0.269-0.328-0.485-0.581-0.65c-0.252-0.165-0.585-0.248-0.999-0.248c-0.423,0-0.759,0.083-1.006,0.248
				c-0.248,0.165-0.441,0.382-0.581,0.65c-0.139,0.268-0.23,0.578-0.271,0.929c-0.042,0.35-0.062,0.712-0.062,1.083
				c0,0.371,0.021,0.733,0.062,1.083s0.132,0.66,0.271,0.928s0.333,0.486,0.581,0.65c0.248,0.165,0.583,0.248,1.006,0.248
				c0.413,0,0.746-0.083,0.999-0.248c0.253-0.165,0.446-0.382,0.581-0.65s0.222-0.578,0.263-0.928S82.131,42.138,82.131,41.767z"/>
			<path d="M86.418,42.061c0,0.836,0.188,1.483,0.564,1.943c0.376,0.459,0.937,0.688,1.68,0.688c0.443,0,0.813-0.069,1.107-0.208
				s0.59-0.359,0.89-0.658l0.759,0.666c-0.196,0.197-0.39,0.366-0.581,0.511c-0.191,0.144-0.397,0.266-0.619,0.364
				c-0.222,0.099-0.462,0.173-0.72,0.224c-0.258,0.052-0.547,0.078-0.867,0.078c-0.506,0-0.965-0.078-1.377-0.232
				c-0.413-0.155-0.764-0.392-1.053-0.712c-0.289-0.32-0.511-0.725-0.665-1.215c-0.155-0.49-0.232-1.07-0.232-1.741
				c0-1.249,0.279-2.211,0.836-2.887c0.557-0.676,1.321-1.013,2.291-1.013c1.001,0,1.772,0.327,2.314,0.983
				c0.542,0.655,0.813,1.561,0.813,2.716v0.496H86.418z M90.458,41.225c-0.01-0.155-0.021-0.29-0.031-0.403
				s-0.023-0.217-0.039-0.309c-0.016-0.093-0.039-0.184-0.07-0.271c-0.031-0.087-0.066-0.183-0.108-0.286
				c-0.166-0.352-0.4-0.629-0.705-0.835c-0.305-0.207-0.663-0.31-1.076-0.31c-0.413,0-0.771,0.104-1.076,0.31
				c-0.305,0.206-0.539,0.484-0.705,0.835c-0.052,0.103-0.09,0.199-0.116,0.286c-0.026,0.088-0.046,0.178-0.062,0.271
				c-0.016,0.092-0.026,0.196-0.031,0.309c-0.005,0.113-0.013,0.248-0.022,0.403H90.458z"/>
			<path d="M99.112,43.346c0,0.733-0.284,1.304-0.852,1.71c-0.567,0.409-1.316,0.612-2.245,0.612c-0.649,0-1.23-0.083-1.741-0.248
				s-0.973-0.449-1.386-0.852l0.744-0.743c0.299,0.31,0.65,0.534,1.052,0.673c0.403,0.139,0.842,0.208,1.316,0.208
				c0.64,0,1.138-0.11,1.494-0.333c0.356-0.221,0.534-0.559,0.534-1.014c0-0.341-0.098-0.601-0.294-0.782
				c-0.196-0.181-0.521-0.292-0.976-0.333l-1.254-0.108c-0.743-0.062-1.308-0.257-1.695-0.588s-0.581-0.815-0.581-1.456
				c0-0.351,0.07-0.663,0.209-0.936c0.14-0.273,0.333-0.505,0.581-0.696c0.248-0.191,0.542-0.338,0.882-0.441
				s0.717-0.154,1.13-0.154c0.558,0,1.065,0.066,1.525,0.2c0.458,0.135,0.864,0.34,1.215,0.619l-0.728,0.728
				c-0.269-0.206-0.575-0.359-0.921-0.457c-0.346-0.098-0.715-0.147-1.107-0.147c-0.557,0-0.98,0.111-1.269,0.333
				c-0.289,0.222-0.433,0.528-0.433,0.92c0,0.341,0.108,0.599,0.324,0.774c0.217,0.176,0.562,0.29,1.037,0.34l1.192,0.108
				c0.33,0.031,0.635,0.088,0.914,0.17c0.278,0.083,0.516,0.204,0.712,0.364c0.196,0.16,0.348,0.363,0.457,0.611
				C99.058,42.68,99.112,42.985,99.112,43.346z"/>
			<path d="M101.232,35.792v-1.253h1.253v1.253H101.232z M101.294,45.574v-7.616h1.114v7.616H101.294z"/>
			<path d="M110.814,45.807c0,0.475-0.072,0.911-0.217,1.308c-0.145,0.397-0.351,0.74-0.619,1.029
				c-0.269,0.29-0.602,0.517-0.999,0.681c-0.397,0.166-0.843,0.248-1.339,0.248c-0.289,0-0.547-0.019-0.774-0.055
				c-0.226-0.036-0.441-0.095-0.642-0.177c-0.202-0.083-0.397-0.189-0.588-0.318c-0.191-0.129-0.385-0.286-0.582-0.472l0.728-0.712
				c0.134,0.124,0.266,0.232,0.395,0.325c0.129,0.093,0.263,0.173,0.403,0.24c0.139,0.067,0.291,0.116,0.456,0.146
				c0.165,0.031,0.356,0.047,0.573,0.047c0.372,0,0.688-0.062,0.952-0.187c0.262-0.124,0.479-0.289,0.649-0.495
				c0.171-0.207,0.294-0.451,0.373-0.735c0.077-0.284,0.116-0.59,0.116-0.92v-1.193c-0.309,0.393-0.64,0.656-0.991,0.79
				c-0.351,0.134-0.733,0.201-1.145,0.201c-0.393,0-0.747-0.062-1.061-0.186c-0.315-0.124-0.576-0.289-0.781-0.495
				c-0.382-0.382-0.633-0.852-0.751-1.409c-0.118-0.557-0.178-1.146-0.178-1.765s0.06-1.207,0.178-1.765
				c0.119-0.557,0.37-1.026,0.751-1.409c0.206-0.207,0.47-0.368,0.789-0.488c0.321-0.118,0.676-0.177,1.068-0.177
				c0.423,0,0.807,0.064,1.153,0.193s0.673,0.394,0.984,0.797v-0.898h1.099V45.807L110.814,45.807z M109.7,41.705
				c0-0.351-0.021-0.698-0.062-1.044c-0.042-0.346-0.129-0.65-0.263-0.914c-0.134-0.263-0.325-0.477-0.573-0.642
				c-0.248-0.165-0.579-0.248-0.991-0.248c-0.413,0-0.746,0.083-0.999,0.248c-0.253,0.165-0.447,0.379-0.581,0.642
				c-0.135,0.264-0.222,0.568-0.263,0.914c-0.042,0.346-0.062,0.694-0.062,1.044c0,0.362,0.02,0.712,0.062,1.053
				c0.041,0.34,0.128,0.642,0.263,0.906c0.134,0.263,0.327,0.478,0.581,0.642c0.253,0.165,0.585,0.248,0.999,0.248
				c0.412,0,0.743-0.083,0.991-0.248c0.248-0.165,0.438-0.379,0.573-0.642c0.133-0.264,0.222-0.565,0.263-0.906
				C109.679,42.417,109.7,42.067,109.7,41.705z"/>
			<path d="M118.477,45.574v-4.69c0-0.681-0.168-1.189-0.503-1.524c-0.335-0.335-0.792-0.503-1.369-0.503
				c-0.578,0-1.038,0.17-1.378,0.511c-0.34,0.34-0.511,0.846-0.511,1.516v4.69h-1.114v-7.616h1.114v0.836
				c0.268-0.309,0.583-0.542,0.944-0.696c0.362-0.156,0.758-0.232,1.192-0.232c0.825,0,1.476,0.237,1.95,0.711
				c0.526,0.516,0.79,1.223,0.79,2.121v4.876H118.477L118.477,45.574z"/>
			<path d="M137.656,35.792v-1.253h1.253v1.253H137.656z M137.718,45.574v-7.616h1.114v7.616H137.718z"/>
			<path d="M146.495,45.574v-4.69c0-0.681-0.168-1.189-0.503-1.524c-0.335-0.335-0.792-0.503-1.37-0.503
				c-0.578,0-1.038,0.17-1.378,0.511c-0.341,0.34-0.511,0.846-0.511,1.516v4.69h-1.115v-7.616h1.115v0.836
				c0.268-0.309,0.583-0.542,0.944-0.696c0.362-0.156,0.759-0.232,1.192-0.232c0.826,0,1.476,0.237,1.951,0.711
				c0.526,0.516,0.79,1.223,0.79,2.121v4.876H146.495L146.495,45.574z"/>
			<path d="M152.144,45.574c-0.33,0-0.616-0.054-0.858-0.162c-0.243-0.108-0.444-0.256-0.604-0.441
				c-0.16-0.186-0.281-0.403-0.364-0.65c-0.082-0.248-0.124-0.511-0.124-0.789V38.81h-0.96v-0.852h0.96v-2.337h1.115v2.337h1.625
				v0.852h-1.625v4.69c0,0.352,0.082,0.624,0.247,0.821c0.166,0.196,0.429,0.294,0.79,0.294h0.588v0.959H152.144L152.144,45.574z"/>
			<path d="M155.766,42.061c0,0.836,0.188,1.483,0.565,1.943s0.936,0.688,1.68,0.688c0.443,0,0.812-0.069,1.107-0.208
				c0.294-0.139,0.59-0.359,0.889-0.658l0.758,0.666c-0.196,0.197-0.39,0.366-0.58,0.511c-0.191,0.144-0.397,0.266-0.619,0.364
				c-0.223,0.099-0.463,0.173-0.72,0.224c-0.258,0.052-0.547,0.078-0.867,0.078c-0.505,0-0.965-0.078-1.378-0.232
				c-0.413-0.155-0.764-0.392-1.052-0.712c-0.289-0.32-0.512-0.725-0.666-1.215c-0.155-0.49-0.233-1.07-0.233-1.741
				c0-1.249,0.279-2.211,0.836-2.887c0.557-0.676,1.321-1.013,2.292-1.013c1.001,0,1.772,0.327,2.313,0.983
				c0.542,0.655,0.813,1.561,0.813,2.716v0.496H155.766z M159.806,41.225c-0.009-0.155-0.02-0.29-0.03-0.403
				c-0.01-0.113-0.023-0.217-0.039-0.309c-0.015-0.093-0.039-0.184-0.069-0.271c-0.031-0.087-0.067-0.183-0.108-0.286
				c-0.165-0.352-0.4-0.629-0.705-0.835c-0.304-0.207-0.663-0.31-1.075-0.31c-0.413,0-0.771,0.104-1.076,0.31
				c-0.305,0.206-0.539,0.484-0.704,0.835c-0.052,0.103-0.091,0.199-0.116,0.286c-0.026,0.088-0.046,0.178-0.062,0.271
				c-0.015,0.092-0.026,0.196-0.031,0.309c-0.005,0.113-0.013,0.248-0.023,0.403H159.806z"/>
			<path d="M167.222,39.414c-0.206-0.206-0.402-0.351-0.588-0.434c-0.186-0.082-0.428-0.124-0.727-0.124
				c-0.279,0-0.532,0.052-0.759,0.155c-0.227,0.103-0.417,0.248-0.572,0.433c-0.155,0.186-0.276,0.403-0.364,0.65
				c-0.088,0.248-0.131,0.517-0.131,0.805v4.675h-1.115v-7.616h1.115v0.929c0.207-0.32,0.503-0.57,0.89-0.751
				c0.387-0.18,0.802-0.27,1.246-0.27c0.361,0,0.689,0.051,0.983,0.154c0.294,0.104,0.575,0.29,0.843,0.557L167.222,39.414z"/>
			<path d="M173.646,45.574v-0.728c-0.299,0.3-0.614,0.512-0.944,0.635c-0.331,0.125-0.748,0.186-1.253,0.186
				c-0.526,0-0.951-0.052-1.27-0.155c-0.32-0.103-0.614-0.284-0.883-0.542c-0.196-0.186-0.34-0.416-0.434-0.688
				c-0.092-0.274-0.139-0.56-0.139-0.859c0-0.681,0.227-1.218,0.681-1.611c0.455-0.392,1.11-0.587,1.967-0.587h2.274v-0.728
				c0-0.557-0.146-0.975-0.44-1.253s-0.798-0.418-1.509-0.418c-0.486,0-0.868,0.067-1.146,0.201
				c-0.279,0.134-0.537,0.361-0.773,0.681l-0.759-0.696c0.331-0.444,0.704-0.746,1.123-0.906c0.417-0.159,0.94-0.239,1.571-0.239
				c1.031,0,1.797,0.216,2.298,0.65c0.5,0.433,0.751,1.062,0.751,1.888v5.17L173.646,45.574L173.646,45.574z M173.646,42.061h-2.121
				c-1.146,0-1.718,0.449-1.718,1.347c0,0.444,0.141,0.771,0.419,0.983c0.278,0.211,0.728,0.317,1.347,0.317
				c0.32,0,0.62-0.028,0.897-0.085c0.279-0.056,0.542-0.199,0.79-0.425c0.258-0.248,0.387-0.687,0.387-1.316V42.061L173.646,42.061z
				"/>
			<path d="M182.624,44.538c-0.393,0.423-0.776,0.717-1.153,0.882c-0.376,0.165-0.828,0.248-1.354,0.248
				c-0.486,0-0.933-0.08-1.339-0.24c-0.408-0.159-0.765-0.402-1.068-0.728c-0.304-0.325-0.542-0.732-0.712-1.223
				c-0.17-0.49-0.255-1.06-0.255-1.71c0-0.651,0.085-1.218,0.255-1.704c0.171-0.485,0.408-0.889,0.712-1.214
				c0.304-0.326,0.661-0.571,1.068-0.736c0.407-0.165,0.854-0.247,1.339-0.247c0.525,0,0.977,0.082,1.354,0.247
				c0.377,0.165,0.761,0.459,1.153,0.882l-0.758,0.712c-0.29-0.32-0.562-0.542-0.821-0.665c-0.257-0.125-0.567-0.187-0.928-0.187
				c-0.373,0-0.708,0.073-1.007,0.217c-0.299,0.145-0.552,0.361-0.758,0.65c-0.175,0.248-0.302,0.529-0.379,0.844
				c-0.078,0.314-0.117,0.714-0.117,1.2c0,0.485,0.039,0.885,0.117,1.199c0.077,0.315,0.204,0.596,0.379,0.844
				c0.207,0.29,0.459,0.506,0.758,0.649c0.299,0.145,0.634,0.218,1.007,0.218c0.36,0,0.67-0.064,0.928-0.193
				c0.258-0.129,0.531-0.354,0.821-0.673L182.624,44.538z"/>
			<path d="M186.57,45.574c-0.33,0-0.617-0.054-0.859-0.162c-0.242-0.108-0.444-0.256-0.604-0.441
				c-0.16-0.186-0.281-0.403-0.363-0.65c-0.083-0.248-0.124-0.511-0.124-0.789V38.81h-0.96v-0.852h0.96v-2.337h1.115v2.337h1.625
				v0.852h-1.625v4.69c0,0.352,0.083,0.624,0.248,0.821c0.165,0.196,0.428,0.294,0.79,0.294h0.588v0.959H186.57L186.57,45.574z"/>
			<path d="M189.512,35.792v-1.253h1.253v1.253H189.512z M189.574,45.574v-7.616h1.114v7.616H189.574z"/>
			<path d="M193.861,42.061c0,0.836,0.188,1.483,0.565,1.943c0.377,0.459,0.936,0.688,1.68,0.688c0.444,0,0.813-0.069,1.106-0.208
				c0.294-0.139,0.591-0.359,0.89-0.658l0.758,0.666c-0.196,0.197-0.39,0.366-0.58,0.511c-0.191,0.144-0.398,0.266-0.62,0.364
				c-0.223,0.099-0.462,0.173-0.72,0.224c-0.258,0.052-0.547,0.078-0.867,0.078c-0.505,0-0.965-0.078-1.378-0.232
				s-0.764-0.392-1.053-0.712c-0.289-0.32-0.511-0.725-0.666-1.215c-0.155-0.49-0.232-1.07-0.232-1.741
				c0-1.249,0.279-2.211,0.836-2.887c0.557-0.676,1.321-1.013,2.291-1.013c1.001,0,1.772,0.327,2.314,0.983
				c0.542,0.655,0.812,1.561,0.812,2.716v0.496H193.861z M197.901,41.225c-0.01-0.155-0.021-0.29-0.031-0.403
				c-0.01-0.113-0.023-0.217-0.039-0.309c-0.016-0.093-0.04-0.184-0.07-0.271c-0.031-0.087-0.067-0.183-0.108-0.286
				c-0.165-0.352-0.4-0.629-0.705-0.835c-0.304-0.207-0.663-0.31-1.075-0.31c-0.413,0-0.771,0.104-1.076,0.31
				c-0.305,0.206-0.539,0.484-0.704,0.835c-0.052,0.103-0.091,0.199-0.116,0.286c-0.026,0.088-0.046,0.178-0.062,0.271
				c-0.016,0.092-0.026,0.196-0.031,0.309c-0.005,0.113-0.014,0.248-0.023,0.403H197.901z"/>
		</g>
		<path d="M69.724,41.934c0,0.856-0.693,1.549-1.548,1.549s-1.548-0.692-1.548-1.549c0-0.855,0.693-1.547,1.548-1.547
			S69.724,41.079,69.724,41.934z"/>
		<path d="M130.078,41.934c0,0.856-0.692,1.549-1.549,1.549c-0.854,0-1.547-0.692-1.547-1.549c0-0.855,0.692-1.547,1.547-1.547
			C129.386,40.387,130.078,41.079,130.078,41.934z"/>
	</g>
</g>
</svg>
